<?xml version="1.0" encoding="iso-8859-1"?>
<!-- Generator: Adobe Illustrator 18.0.0, SVG Export Plug-In . SVG Version: 6.00 Build 0)  -->
<!DOCTYPE svg PUBLIC "-//W3C//DTD SVG 1.1//EN" "http://www.w3.org/Graphics/SVG/1.1/DTD/svg11.dtd">
<svg version="1.1" id="Capa_1" xmlns="http://www.w3.org/2000/svg" xmlns:xlink="http://www.w3.org/1999/xlink" x="0px" y="0px"
	 viewBox="0 0 289.759 289.759" style="enable-background:new 0 0 289.759 289.759;" xml:space="preserve">
<g>
	<path d="M288.831,137.06c-1.528-3.119-4.699-5.096-8.172-5.096h-17.177C262.719,64.424,207.55,9.713,139.833,9.713
		c-8.284,0-15,6.716-15,15s6.716,15,15,15c51.175,0,92.888,41.253,93.649,92.251H216.34c-3.473,0-6.643,1.977-8.172,5.096
		c-1.528,3.119-1.148,6.836,0.98,9.58l32.159,41.481c1.724,2.223,4.379,3.524,7.192,3.524c2.813,0,5.468-1.301,7.192-3.524
		l32.159-41.481C289.979,143.895,290.359,140.178,288.831,137.06z"/>
	<path d="M139.833,231.38c-8.284,0-15,6.716-15,15v18.666c0,8.284,6.716,15,15,15c8.284,0,15-6.716,15-15V246.38
		C154.833,238.096,148.117,231.38,139.833,231.38z"/>
	<path d="M73.76,55.771c2.778,4.811,7.82,7.502,13.004,7.502c2.545,0,5.125-0.649,7.487-2.013
		c7.174-4.143,9.632-13.316,5.489-20.491l-9.334-16.165c-4.142-7.174-13.317-9.633-20.491-5.489
		c-7.174,4.142-9.632,13.316-5.489,20.491L73.76,55.771z"/>
	<path d="M205.906,224.656c-4.143-7.174-13.317-9.633-20.491-5.489c-7.174,4.143-9.632,13.316-5.489,20.491l9.334,16.165
		c2.778,4.811,7.82,7.502,13.004,7.502c2.545,0,5.125-0.648,7.487-2.013c7.174-4.142,9.632-13.316,5.489-20.491L205.906,224.656z"/>
	<path d="M24.224,90.786l16.165,9.334c2.363,1.364,4.941,2.013,7.487,2.013c5.183,0,10.226-2.69,13.004-7.502
		c4.142-7.175,1.684-16.349-5.489-20.491l-16.165-9.334c-7.174-4.141-16.349-1.686-20.491,5.489
		C14.592,77.47,17.05,86.644,24.224,90.786z"/>
	<path d="M48.666,140.213c0-8.284-6.716-15-15-15H15c-8.284,0-15,6.716-15,15c0,8.284,6.716,15,15,15h18.666
		C41.95,155.213,48.666,148.497,48.666,140.213z"/>
	<path d="M60.88,185.795c-4.143-7.174-13.317-9.633-20.491-5.489l-16.165,9.334c-7.174,4.143-9.632,13.316-5.489,20.491
		c2.778,4.812,7.82,7.502,13.004,7.502c2.545,0,5.125-0.648,7.487-2.013l16.165-9.334C62.564,202.144,65.022,192.97,60.88,185.795z"
		/>
	<path d="M94.251,219.166c-7.175-4.142-16.348-1.686-20.491,5.489l-9.334,16.165c-4.143,7.175-1.685,16.349,5.489,20.491
		c2.363,1.364,4.941,2.013,7.487,2.013c5.183,0,10.226-2.69,13.004-7.502l9.334-16.165
		C103.883,232.483,101.425,223.309,94.251,219.166z"/>
	<path d="M131.174,169.864c0-4.626-3.764-8.39-8.39-8.39h-17.051c0.139-0.164,0.282-0.328,0.428-0.493
		c1.114-1.254,3.841-3.874,8.107-7.785c4.473-4.105,7.493-7.179,9.232-9.398c2.621-3.336,4.571-6.593,5.794-9.679
		c1.247-3.145,1.88-6.498,1.88-9.967c0-6.223-2.254-11.507-6.699-15.705c-4.416-4.164-10.495-6.274-18.071-6.274
		c-6.884,0-12.731,1.802-17.377,5.356c-2.803,2.146-4.961,5.119-6.415,8.839c-0.982,2.513-0.728,5.388,0.68,7.689
		c1.408,2.302,3.852,3.836,6.537,4.105c0.299,0.03,0.597,0.045,0.891,0.045c3.779,0,7.149-2.403,8.387-5.979
		c0.388-1.121,0.901-2.012,1.527-2.65c1.318-1.343,3.093-1.997,5.428-1.997c2.373,0,4.146,0.618,5.418,1.889
		c1.269,1.269,1.886,3.12,1.886,5.66c0,2.359-0.843,4.819-2.505,7.314c-0.891,1.305-3.554,4.36-11.108,11.398
		c-7.912,7.341-13.089,13.113-15.823,17.643c-1.93,3.195-3.338,6.573-4.187,10.04c-0.399,1.632-0.032,3.326,1.007,4.649
		c1.038,1.321,2.596,2.079,4.276,2.079h37.758C127.411,178.254,131.174,174.49,131.174,169.864z"/>
	<path d="M180.779,169.594v-5.787h0.865c4.437,0,8.047-3.61,8.047-8.047s-3.61-8.047-8.047-8.047h-0.865v-40.105
		c0-2.997-2.439-5.436-5.436-5.436h-6.306c-1.797,0-3.475,0.886-4.489,2.37L135.38,147.24c-0.851,1.246-1.301,2.703-1.301,4.212
		v6.919c0,2.997,2.439,5.436,5.436,5.436h23.945v5.787c0,4.775,3.885,8.66,8.66,8.66
		C176.894,178.254,180.779,174.369,180.779,169.594z M163.46,147.713h-10.748l10.748-15.978V147.713z"/>
</g>
<g>
</g>
<g>
</g>
<g>
</g>
<g>
</g>
<g>
</g>
<g>
</g>
<g>
</g>
<g>
</g>
<g>
</g>
<g>
</g>
<g>
</g>
<g>
</g>
<g>
</g>
<g>
</g>
<g>
</g>
</svg>
