<?xml version="1.0" encoding="iso-8859-1"?>
<!-- Generator: Adobe Illustrator 19.0.0, SVG Export Plug-In . SVG Version: 6.00 Build 0)  -->
<svg version="1.1" id="Capa_1" xmlns="http://www.w3.org/2000/svg" xmlns:xlink="http://www.w3.org/1999/xlink" x="0px" y="0px"
	 viewBox="0 0 512 512" style="enable-background:new 0 0 512 512;" xml:space="preserve">
<g>
	<g>
		<path d="M255.999,0c-0.021,0-0.033,0-0.054,0C94.328,0-26.413,148.835,7.122,307.361c1.715,8.104,9.675,13.288,17.777,11.569
			c8.104-1.715,13.283-9.675,11.568-17.78C6.881,161.295,113.373,30,255.945,30c0.015,0,0.033,0,0.047,0
			C380.06,30.026,480.48,130.477,480.505,254.585c0.026,124.034-100.262,224.48-224.361,224.48c-0.015,0-0.033,0-0.047,0
			c-46.625-0.01-91.079-14.149-128.487-40.381l34.005-0.032c8.283-0.008,14.991-6.73,14.983-15.015
			c-0.008-8.279-6.721-14.985-14.997-14.985c-0.005,0-0.01,0-0.015,0l-74.693,0.071c-10.105,0.008-17.839,10.197-14.233,20.23
			l14.239,70.995c1.43,7.126,7.689,12.052,14.689,12.052c9.499,0,16.579-8.688,14.721-17.953l-6.217-30.997
			c42.476,29.892,93.002,46.004,145.999,46.015c0.021,0,0.033,0,0.054,0C396.747,509.06,510.528,395.272,510.5,254.579
			C510.472,113.924,396.672,0.028,255.999,0z"/>
	</g>
</g>
<g>
	<g>
		<path d="M255.947,50C126.077,50,29.075,169.59,56.031,297.01c1.493,7.058,7.722,11.897,14.658,11.897
			c1.029,0,2.073-0.106,3.12-0.328c8.103-1.715,13.282-9.674,11.567-17.78C62.37,182.052,145.126,80,255.946,80h0.04
			c8.283,0,14.978-6.716,14.978-15S264.23,50,255.947,50z"/>
	</g>
</g>
<g>
	<g>
		<path d="M244.057,286.479h-46.882v-1.613c-0.001-16.31,55.291-29.035,55.291-67.928c0-24.017-20.936-37.1-41.692-37.1
			c-20.399,0-40.44,12.546-40.44,34.412c0,11.291,5.368,14.517,12.526,14.517c9.126,0,14.673-5.019,14.673-10.217
			c0-9.857,6.263-13.441,13.42-13.441c10.021,0,13.6,6.989,13.6,12.725c0,22.763-56.366,38.893-56.366,67.032v17.385
			c0,5.198,7.157,8.603,12.168,8.603h63.702c4.474,0,8.41-5.915,8.41-12.367C252.467,292.035,248.531,286.479,244.057,286.479z"/>
	</g>
</g>
<g>
	<g>
		<path d="M339.43,257.445h-7.695v-12.547c0-5.914-6.978-8.423-13.957-8.423c-6.978,0-13.957,2.509-13.957,8.423v12.547h-15.389
			l31.672-63.627c0.538-1.256,0.895-2.331,0.895-3.406c0-6.452-9.125-10.574-13.957-10.574c-4.473,0-8.947,1.972-11.631,7.169
			l-41.335,81.191c-1.074,1.971-1.432,3.942-1.432,5.377c0,6.272,4.116,9.678,9.305,9.678h41.872v18.998
			c0,5.736,6.978,8.603,13.957,8.603s13.957-2.867,13.957-8.603v-18.998h7.695c4.294,0,8.588-6.452,8.588-12.904
			C348.018,263.897,345.155,257.445,339.43,257.445z"/>
	</g>
</g>
<g>
</g>
<g>
</g>
<g>
</g>
<g>
</g>
<g>
</g>
<g>
</g>
<g>
</g>
<g>
</g>
<g>
</g>
<g>
</g>
<g>
</g>
<g>
</g>
<g>
</g>
<g>
</g>
<g>
</g>
</svg>
