<?xml version="1.0" encoding="iso-8859-1"?>
<!-- Generator: Adobe Illustrator 19.0.0, SVG Export Plug-In . SVG Version: 6.00 Build 0)  -->
<svg version="1.1" id="Capa_1" xmlns="http://www.w3.org/2000/svg" xmlns:xlink="http://www.w3.org/1999/xlink" x="0px" y="0px"
	 viewBox="0 0 480.008 480.008" style="enable-background:new 0 0 480.008 480.008;" xml:space="preserve">
<g>
	<g>
		<path d="M456.004,345.048c-3.669-54.703-49.174-97.163-104-97.04h-344c-4.418,0-8,3.582-8,8c0.06,51.214,37.396,94.761,88,102.64
			v121.36h16v-120h312v88c0,17.673,14.327,32,32,32h24c4.418,0,8-3.582,8-8v-96C479.993,361.425,470.124,348.693,456.004,345.048z
			 M104.004,344.008c-45.641,0.189-83.851-34.548-88-80h336c45.641-0.189,83.851,34.548,88,80H104.004z M464.004,464.008h-16
			c-8.837,0-16-7.163-16-16v-88h16c8.837,0,16,7.163,16,16V464.008z"/>
	</g>
</g>
<g>
	<g>
		<path d="M184.004,416.008c-20.96,0-40.48,12.72-54.8,35.76l13.6,8.48c4.475-7.515,10.308-14.134,17.2-19.52
			c0,13.255,10.745,24,24,24s24-10.745,24-24c6.921,5.378,12.781,11.998,17.28,19.52l13.6-8.48
			C224.484,428.728,204.964,416.008,184.004,416.008z M184.004,448.008c-4.418,0-8-3.582-8-8s3.582-8,8-8s8,3.582,8,8
			S188.422,448.008,184.004,448.008z"/>
	</g>
</g>
<g>
	<g>
		<path d="M328.004,416.008c-20.96,0-40.48,12.72-54.8,35.76l13.6,8.48c4.475-7.515,10.308-14.134,17.2-19.52
			c0,13.255,10.745,24,24,24s24-10.745,24-24c6.921,5.378,12.781,11.998,17.28,19.52l13.6-8.48
			C368.484,428.728,348.964,416.008,328.004,416.008z M328.004,448.008c-4.418,0-8-3.582-8-8s3.582-8,8-8s8,3.582,8,8
			S332.422,448.008,328.004,448.008z"/>
	</g>
</g>
<g>
	<g>
		<path d="M130.964,16.568l-40-16c-1.901-0.757-4.019-0.757-5.92,0l-40,16c-3.046,1.213-5.043,4.162-5.04,7.44v32h16v-26.56l32-12.8
			l32,12.8v22l-36.08,21.68c-2.43,1.44-3.919,4.055-3.92,6.88v32h16v-27.44l36.08-21.68c2.43-1.441,3.919-4.055,3.92-6.88v-32
			C136.007,20.729,134.01,17.781,130.964,16.568z"/>
	</g>
</g>
<g>
	<g>
		<rect x="80.004" y="128.008" width="16" height="16"/>
	</g>
</g>
<g>
	<g>
		<path d="M282.964,16.568l-40-16c-1.901-0.757-4.019-0.757-5.92,0l-40,16c-3.046,1.213-5.043,4.162-5.04,7.44v32h16v-26.56l32-12.8
			l32,12.8v22l-36.08,21.68c-2.43,1.44-3.919,4.055-3.92,6.88v32h16v-27.44l36.08-21.68c2.43-1.441,3.919-4.055,3.92-6.88v-32
			C288.007,20.729,286.01,17.781,282.964,16.568z"/>
	</g>
</g>
<g>
	<g>
		<rect x="232.004" y="128.008" width="16" height="16"/>
	</g>
</g>
<g>
	<g>
		<path d="M434.964,16.568l-40-16c-1.901-0.757-4.019-0.757-5.92,0l-40,16c-3.046,1.213-5.043,4.162-5.04,7.44v32h16v-26.56l32-12.8
			l32,12.8v22l-36.08,21.68c-2.43,1.441-3.919,4.055-3.92,6.88v32h16v-27.44l36.08-21.68c2.43-1.441,3.919-4.055,3.92-6.88v-32
			C440.007,20.729,438.01,17.781,434.964,16.568z"/>
	</g>
</g>
<g>
	<g>
		<rect x="384.004" y="128.008" width="16" height="16"/>
	</g>
</g>
<g>
</g>
<g>
</g>
<g>
</g>
<g>
</g>
<g>
</g>
<g>
</g>
<g>
</g>
<g>
</g>
<g>
</g>
<g>
</g>
<g>
</g>
<g>
</g>
<g>
</g>
<g>
</g>
<g>
</g>
</svg>
