<?xml version="1.0" encoding="iso-8859-1"?>
<!-- Generator: Adobe Illustrator 19.0.0, SVG Export Plug-In . SVG Version: 6.00 Build 0)  -->
<svg xmlns="http://www.w3.org/2000/svg" xmlns:xlink="http://www.w3.org/1999/xlink" version="1.1" id="Layer_1" x="0px" y="0px" viewBox="0 0 512 512" style="enable-background:new 0 0 512 512;" xml:space="preserve" width="512px" height="512px">
<g>
	<g>
		<path d="M463.69,165.522c-4.132-0.125-7.598,3.07-7.751,7.197c-3.713,100.094-41.401,237.55-199.773,324.197    C153.053,440.506,88.907,356.4,65.496,246.917c-18.067-84.489-5.485-157.091-0.929-178.368    c129.736-6.891,175.645-35.945,191.599-53.185c15.953,17.238,61.864,46.293,191.599,53.185c1.869,8.726,5.13,26.331,7.029,50.205    c0.327,4.117,3.936,7.18,8.049,6.863c4.118-0.327,7.191-3.931,6.863-8.049c-2.016-25.353-5.54-43.987-7.462-52.838    c-1.344-6.194-6.704-10.751-13.037-11.085C317.861,46.76,277.796,17.109,266.667,4.68C264.004,1.706,260.175,0,256.166,0    c-4.01,0-7.838,1.706-10.501,4.68C234.535,17.109,194.47,46.76,63.124,53.646c-6.332,0.333-11.692,4.891-13.035,11.083    c-4.591,21.151-18.101,97.022,0.78,185.316c10.836,50.677,30.574,96.929,58.664,137.468    c34.315,49.523,81.374,90.825,139.871,122.754c2.118,1.156,4.44,1.735,6.763,1.734c2.323,0,4.646-0.578,6.763-1.734    c74.466-40.647,129.977-96.095,164.989-164.804c26.18-51.376,40.637-109.309,42.97-172.189    C471.041,169.146,467.819,165.676,463.69,165.522z" fill="#FFFFFF"/>
	</g>
</g>
<g>
	<g>
		<path d="M330.182,205.013h-12.813V134.49c0-33.748-27.456-61.204-61.203-61.204s-61.203,27.457-61.203,61.204v70.523H182.15    c-11.741,0-21.295,9.552-21.295,21.295v37.464c0,4.131,3.349,7.48,7.48,7.48s7.48-3.348,7.48-7.48v-37.464    c0-3.493,2.843-6.336,6.336-6.336h20.293h22.234h62.98h22.234h20.293c3.493,0,6.336,2.843,6.336,6.336V357.1    c0,3.493-2.843,6.335-6.336,6.335H182.149c-3.493,0-6.336-2.842-6.336-6.335v-40.974c0.001-4.131-3.347-7.48-7.479-7.48    c-4.13,0-7.48,3.349-7.48,7.48v40.974c0,11.741,9.552,21.294,21.295,21.294h148.034c11.741,0,21.295-9.552,21.295-21.294V226.307    C351.477,214.565,341.924,205.013,330.182,205.013z M280.177,205.013h-0.001h-48.021v-71.715c0-13.24,10.771-24.011,24.011-24.011    s24.011,10.771,24.011,24.011V205.013z M302.41,205.013h-7.275v-71.715c0-21.488-17.481-38.97-38.97-38.97    c-21.488,0-38.97,17.482-38.97,38.97v71.715h-7.275V134.49c0-25.5,20.746-46.246,46.245-46.246s46.245,20.746,46.245,46.246    V205.013z" fill="#FFFFFF"/>
	</g>
</g>
<g>
</g>
<g>
</g>
<g>
</g>
<g>
</g>
<g>
</g>
<g>
</g>
<g>
</g>
<g>
</g>
<g>
</g>
<g>
</g>
<g>
</g>
<g>
</g>
<g>
</g>
<g>
</g>
<g>
</g>
</svg>
